Coordinates
version=1
nRows=14
nColumns=24
inDegrees=yes

Units are S.I. units (second, meters, Newtons, ...)
Angles are in degrees.

endheader
time	pelvis_tilt	pelvis_list	pelvis_rotation	pelvis_tx	pelvis_ty	pelvis_tz	hip_flexion_r	hip_adduction_r	hip_rotation_r	knee_angle_r	ankle_angle_r	subtalar_angle_r	mtp_angle_r	hip_flexion_l	hip_adduction_l	hip_rotation_l	knee_angle_l	ankle_angle_l	subtalar_angle_l	mtp_angle_l	lumbar_extension	lumbar_bending	lumbar_rotation
      0.45800000	     -2.21815695	     -0.65549787	     -1.43300436	     -0.82272044	      1.04665394	      0.26286052	     26.88300648	      1.32313117	      1.85152132	     -0.56152282	      5.65209285	     -9.48108541	      7.80552175	    -16.16868652	      0.65745933	      0.95957666	     -2.89420615	     17.44065426	      5.62871350	      4.32821021	    -19.54331275	      2.24182747	     -5.02218383
      0.46216667	     -2.20893596	     -0.65493450	     -1.25954262	     -0.81697535	      1.04577533	      0.26296557	     26.77323526	      1.28373729	      2.14450734	     -0.82500832	      5.54989968	     -9.66293949	      7.80054031	    -16.32115292	      0.59725716	      1.02763731	     -3.27538297	     17.58239277	      5.79782236	      4.36513175	    -19.54041810	      2.39906689	     -5.09646224
      0.46633333	     -2.22076084	     -0.65311502	     -1.07967488	     -0.81116236	      1.04491068	      0.26306142	     26.67805285	      1.24243879	      2.35992313	     -1.10506136	      5.47625625	     -9.75195030	      7.80025619	    -16.43758220	      0.53616632	      1.11687907	     -3.69226039	     17.70761200	      5.87433581	      4.39099941	    -19.48266616	      2.54823969	     -5.10321182
      0.47050000	     -2.21494198	     -0.67411799	     -0.91335195	     -0.80530816	      1.04410600	      0.26321098	     26.52423470	      1.23436004	      2.68334120	     -1.32530788	      5.21870206	    -10.08386830	      7.80154145	    -16.54698445	      0.44273448	      1.02226138	     -4.16227279	     17.83172810	      6.28962065	      4.49057687	    -19.47050296	      2.74091817	     -5.20843780
      0.47466667	     -2.21631342	     -0.69114417	     -0.73909027	     -0.79943766	      1.04333431	      0.26333497	     26.38909747	      1.22014624	      2.89059374	     -1.58793266	      4.99022745	    -10.28054961	      7.81047871	    -16.63968698	      0.35237925	      0.99342793	     -4.65620629	     17.95123247	      6.59080524	      4.61279556	    -19.43552734	      2.91918186	     -5.22496801
      0.47883333	     -2.22760179	     -0.71755631	     -0.56727550	     -0.79349910	      1.04260162	      0.26347611	     26.25153269	      1.21892788	      3.06275987	     -1.84566292	      4.71758684	    -10.48649064	      7.82583921	    -16.71899857	      0.24885962	      0.95607832	     -5.15883663	     18.04050076	      6.88609184	      4.75809898	    -19.38308300	      3.11096156	     -5.26372545
      0.48300000	     -2.23928438	     -0.75384323	     -0.39332110	     -0.78753604	      1.04192309	      0.26361470	     26.10668368	      1.22899357	      3.19839023	     -2.09976902	      4.39417845	    -10.70412817	      7.84698353	    -16.78676126	      0.13178911	      0.90428415	     -5.68239353	     18.10696007	      7.19985296	      4.93312211	    -19.33160569	      3.31714326	     -5.29151905
      0.48716667	     -2.23882821	     -0.79926025	     -0.22338265	     -0.78155822	      1.04131819	      0.26376508	     25.94539744	      1.25101762	      3.29586558	     -2.35448974	      4.01491793	    -10.92982564	      7.87483088	    -16.84804990	      0.00226838	      0.82860717	     -6.24752732	     18.16076209	      7.53041032	      5.14085878	    -19.29269040	      3.53015609	     -5.30618757
      0.49133333	     -2.23303284	     -0.84593779	     -0.07002505	     -0.77558055	      1.04077264	      0.26395929	     25.78578428	      1.28433577	      3.36618793	     -2.62458481	      3.57631239	    -11.16177524	      7.91397524	    -16.90417311	     -0.12758594	      0.72952119	     -6.83306785	     18.20287716	      7.89690596	      5.41117615	    -19.27212454	      3.73748151	     -5.30453408
      0.49550000	     -2.25234761	     -0.91024379	      0.08874402	     -0.76953782	      1.04027064	      0.26413265	     25.64331511	      1.33208032	      3.39214232	     -2.88574182	      3.10141869	    -11.39065461	      7.95838428	    -16.91457192	     -0.27939030	      0.62842181	     -7.45928622	     18.19962385	      8.23982249	      5.71948720	    -19.20747819	      3.97368664	     -5.29423529
      0.49966667	     -2.26125281	     -0.99225968	      0.24198250	     -0.76348481	      1.03984672	      0.26431957	     25.49052145	      1.40026410	      3.38565511	     -3.15037885	      2.60130113	    -11.62802478	      8.00395206	    -16.92304482	     -0.45130544	      0.50867016	     -8.11379850	     18.17485486	      8.58494226	      6.05080988	    -19.15044479	      4.23145030	     -5.26665517
      0.50383333	     -2.28294755	     -1.07530866	      0.38539103	     -0.75742317	      1.03948096	      0.26453128	     25.36492911	      1.47369191	      3.34074395	     -3.44198627	      2.05254733	    -11.84317629	      8.05472122	    -16.89792875	     -0.62462779	      0.37664638	     -8.80060048	     18.11531891	      8.94182714	      6.44807264	    -19.08438126	      4.47928412	     -5.22888470
      0.50800000	     -2.30053664	     -1.17885665	      0.52095051	     -0.75133992	      1.03920017	      0.26475222	     25.23933238	      1.57026244	      3.26927410	     -3.74681597	      1.50040850	    -12.05775001	      8.10635997	    -16.85579627	     -0.81898986	      0.23933231	     -9.53233141	     18.02436640	      9.27534390	      6.88769457	    -19.02141391	      4.75583473	     -5.16865712
      0.51216667	     -2.30876263	     -1.29301492	      0.64278665	     -0.74526008	      1.03900329	      0.26499893	     25.11906196	      1.68198615	      3.16776508	     -4.08240364	      0.95794353	    -12.24694978	      8.15500835	    -16.80519622	     -1.02344317	      0.08201481	    -10.29475618	     17.90221220	      9.60043742	      7.35026139	    -18.97217481	      5.04464307	     -5.08929658
